<svg width="150" height="142" viewBox="0 0 150 142" fill="none" xmlns="http://www.w3.org/2000/svg">
<path d="M132.69 54.5546C127.995 54.5546 123.863 56.5154 120.827 59.5831C109.652 51.7715 94.5951 46.743 77.9108 46.2054L86.5816 6.73634L114.19 12.9983C114.19 19.8294 119.7 25.3956 126.461 25.3956C133.348 25.3956 138.888 19.6713 138.888 12.8401C138.888 6.00894 133.379 0.284668 126.461 0.284668C121.64 0.284668 117.477 3.22587 115.411 7.24235L84.9226 0.411171C83.3888 3.54052e-05 81.8863 1.10694 81.4793 2.65661L71.9634 46.1737C55.4043 46.8695 40.5043 51.898 29.298 59.7096C26.2617 56.5154 21.9732 54.5546 17.2778 54.5546C-0.126353 54.5546 -5.82341 78.1475 10.1096 86.212C9.54613 88.7105 9.29571 91.3671 9.29571 94.0236C9.29571 120.526 38.8453 142 75.1249 142C111.561 142 141.111 120.526 141.111 94.0236C141.111 91.3671 140.829 88.584 140.14 86.0855C155.76 77.9893 150.001 54.5546 132.69 54.5546ZM35.3707 87.8882C35.3707 80.9305 40.88 75.3328 47.7978 75.3328C54.5592 75.3328 60.0684 80.8989 60.0684 87.8882C60.0684 94.7194 54.5592 100.286 47.7978 100.286C40.9113 100.317 35.3707 94.7194 35.3707 87.8882ZM102.452 117.458C91.0579 128.97 58.9102 128.97 47.5161 117.458C46.264 116.351 46.264 114.391 47.5161 113.126C48.6117 112.019 50.5524 112.019 51.648 113.126C60.3501 122.139 89.211 122.297 98.2888 113.126C99.3844 112.019 101.325 112.019 102.421 113.126C103.704 114.391 103.704 116.351 102.452 117.458ZM102.202 100.317C95.4402 100.317 89.931 94.751 89.931 87.9198C89.931 80.9622 95.4402 75.3644 102.202 75.3644C109.088 75.3644 114.629 80.9305 114.629 87.9198C114.597 94.7194 109.088 100.317 102.202 100.317Z" fill="#737373"/>
</svg>
