<svg width="152" height="92" viewBox="0 0 152 92" fill="none" xmlns="http://www.w3.org/2000/svg">
<path d="M42.7332 33.3702C42.5616 38.7686 45.2593 41.1592 45.3261 42.6774C45.2943 42.9864 45.189 43.2833 45.019 43.5433C44.849 43.8033 44.6193 44.0188 44.349 44.1718L41.2985 46.3074C40.9037 46.5841 40.4384 46.7428 39.9568 46.765C39.8543 46.7602 38.005 47.2011 35.076 40.661C33.2891 42.8918 31.0155 44.6841 28.4292 45.9007C25.843 47.1174 23.0127 47.7261 20.155 47.6802C16.2751 47.8923 5.76056 45.4779 6.30155 34.283C5.92262 25.1593 14.4186 19.4915 23.2054 19.9706C24.8975 19.9753 28.3531 20.0588 34.404 21.465V17.7421C35.045 11.4355 30.9007 6.54238 23.725 7.27647C23.153 7.27886 19.1016 7.1573 12.8005 9.68611C11.0465 10.4917 10.8224 10.3582 10.2386 10.3582C8.47262 10.3582 9.19949 5.23865 9.5379 4.59036C10.7795 3.06497 18.084 0.216785 25.2526 0.257303C30.0457 -0.166643 34.8132 1.3128 38.5245 4.37585C40.0331 6.06351 41.1841 8.03946 41.9078 10.1844C42.6316 12.3293 42.9132 14.5987 42.7356 16.8554L42.7332 33.3702ZM22.1378 41.09C29.8664 40.978 33.1385 36.3304 33.8844 33.8278C34.4707 31.4324 34.373 29.9166 34.373 27.2972C32.0685 26.7442 28.7511 26.1412 24.9451 26.1365C21.3346 25.8648 14.7404 27.4783 14.9978 33.8254C14.7022 37.8271 17.6479 41.3093 22.1378 41.09ZM62.871 46.5838C60.9978 46.7554 60.1256 45.4255 59.8492 44.1122L47.9809 4.86922C47.7498 4.20663 47.5972 3.52259 47.5234 2.82424C47.4796 2.53634 47.5519 2.24282 47.7244 2.00819C47.8969 1.77356 48.1554 1.61702 48.4433 1.57295C48.5005 1.56342 47.9357 1.57295 53.7458 1.57295C55.8383 1.36321 56.5199 3.01015 56.7367 4.04456L65.2494 37.6103L73.152 4.04456C73.2784 3.2771 73.8527 1.40611 76.2025 1.60394H80.2921C80.8092 1.56103 82.9398 1.48476 83.3139 4.07554L91.2785 38.0703L100.065 4.07554C100.18 3.55596 100.713 1.36559 103.087 1.60394H107.787C107.989 1.57295 109.252 1.41088 109.038 3.64891C108.935 4.08984 109.851 1.10818 96.4667 44.1432C96.1926 45.4565 95.318 46.7864 93.4448 46.6148H88.9906C86.3835 46.8889 86.0093 44.3124 85.9688 44.0526L78.0662 11.3688L70.2541 44.0193C70.216 44.2791 69.8418 46.8555 67.2322 46.5814H62.871V46.5838ZM128.046 47.9257C126.645 47.9281 119.962 47.8542 114.376 44.9965C113.82 44.7608 113.346 44.3653 113.014 43.8599C112.683 43.3545 112.509 42.7621 112.515 42.1578V39.5956C112.515 37.5817 113.993 37.9511 114.619 38.1918C117.012 39.1595 118.547 39.8936 121.485 40.4799C130.22 42.2746 134.061 39.9317 135.003 39.4121C138.137 37.5507 138.384 33.2915 136.254 31.0821C133.756 28.987 132.565 28.9084 123.592 26.0769C122.486 25.7694 113.178 22.8331 113.156 13.5973C113.011 6.86653 119.126 0.20725 129.724 0.262069C132.743 0.259685 140.789 1.24642 142.967 3.98497C143.289 4.48311 143.449 5.06943 143.425 5.6629V8.07254C143.425 9.13077 143.039 9.65989 142.264 9.65989C140.427 9.45492 137.167 6.99761 130.548 7.09772C128.906 7.01191 121.042 7.31461 121.395 13.0491C121.292 17.5681 127.736 19.2627 128.473 19.4581C137.162 22.0727 140.067 22.5065 143.515 26.5083C147.6 31.8114 145.398 38.0202 144.552 39.722C140.005 48.6574 128.246 47.9305 128.046 47.9257ZM137.627 72.9182C120.937 85.2453 96.7098 91.8068 76.0238 91.8068C48.1121 91.9909 21.1411 81.7267 0.412714 63.0318C-1.1435 61.628 0.22921 59.7046 2.12145 60.7747C25.1154 73.9292 51.1494 80.841 77.6396 80.824C97.4217 80.7179 116.988 76.7045 135.215 69.0142C138.022 67.8225 140.403 70.8733 137.627 72.9182ZM144.583 64.9838C142.448 62.2381 130.456 63.7016 125.086 64.3427C123.468 64.5262 123.194 63.1224 124.66 62.0856C134.209 55.3715 149.893 57.2949 151.694 59.552C153.494 61.8091 151.206 77.5254 142.267 85.0332C140.894 86.1939 139.581 85.5814 140.191 84.056C142.202 78.9912 146.718 67.7319 144.583 64.9838Z" fill="#737373"/>
</svg>
