<svg width="105" height="63" viewBox="0 0 105 63" fill="none" xmlns="http://www.w3.org/2000/svg">
<path d="M29.8872 22.9882C29.7706 26.6263 31.6044 28.2373 31.6497 29.2605C31.6281 29.4687 31.5566 29.6688 31.441 29.844C31.3255 30.0192 31.1693 30.1645 30.9856 30.2676L28.912 31.7068C28.6437 31.8933 28.3274 32.0002 28 32.0152C27.9304 32.0119 26.6733 32.3091 24.6824 27.9016C23.4677 29.405 21.9223 30.6128 20.1643 31.4327C18.4063 32.2526 16.4824 32.6628 14.54 32.6319C11.9027 32.7749 4.75553 31.1478 5.12326 23.6034C4.86569 17.4548 10.6408 13.6352 16.6135 13.9581C17.7636 13.9613 20.1125 14.0175 24.2256 14.9652V12.4562C24.6613 8.20619 21.8443 4.90862 16.9666 5.40334C16.5778 5.40494 13.8239 5.32303 9.54083 7.02723C8.34855 7.57013 8.19628 7.48018 7.79939 7.48018C6.59902 7.48018 7.0931 4.03002 7.32313 3.59313C8.16712 2.56515 13.1322 0.645723 18.005 0.673028C21.2631 0.387326 24.5037 1.38434 27.0264 3.44857C28.0519 4.58591 28.8343 5.91753 29.3262 7.36301C29.8182 8.8085 30.0096 10.3379 29.8889 11.8587L29.8872 22.9882ZM15.8877 28.1907C21.1412 28.1153 23.3654 24.9831 23.8724 23.2966C24.2709 21.6824 24.2045 20.6608 24.2045 18.8956C22.638 18.5229 20.3831 18.1166 17.796 18.1133C15.3418 17.9302 10.8595 19.0176 11.0344 23.295C10.8335 25.9918 12.8358 28.3385 15.8877 28.1907ZM43.5757 31.8931C42.3024 32.0087 41.7095 31.1125 41.5216 30.2274L33.4543 3.78106C33.2972 3.33453 33.1935 2.87355 33.1433 2.40292C33.1136 2.2089 33.1627 2.01109 33.28 1.85298C33.3972 1.69486 33.573 1.58936 33.7686 1.55966C33.8075 1.55323 33.4236 1.55966 37.373 1.55966C38.7953 1.41831 39.2586 2.52821 39.406 3.22531L45.1924 25.8457L50.5641 3.22531C50.65 2.70811 51.0404 1.44723 52.6376 1.58054H55.4175C55.769 1.55163 57.2172 1.50023 57.4715 3.24619L62.8854 26.1557L68.8581 3.24619C68.9358 2.89603 69.2987 1.41992 70.9122 1.58054H74.1067C74.2444 1.55966 75.1029 1.45044 74.9571 2.95868C74.8875 3.25583 75.5095 1.24645 66.412 30.2483C66.2257 31.1333 65.6312 32.0296 64.3579 31.914H61.3302C59.558 32.0987 59.3037 30.3624 59.2761 30.1873L53.9044 8.16121L48.5943 30.1648C48.5684 30.3399 48.314 32.0762 46.5402 31.8915H43.5757V31.8931ZM87.8778 32.7974C86.9252 32.799 82.3829 32.7492 78.5858 30.8233C78.2076 30.6645 77.8854 30.398 77.6602 30.0574C77.4349 29.7168 77.3167 29.3176 77.3206 28.9103V27.1837C77.3206 25.8264 78.325 26.0754 78.751 26.2376C80.3775 26.8897 81.4207 27.3844 83.4181 27.7796C89.3551 28.989 91.9665 27.4101 92.6064 27.06C94.7366 25.8055 94.9051 22.9352 93.4568 21.4462C91.7591 20.0344 90.9492 19.9814 84.8501 18.0732C84.0985 17.866 77.771 15.8871 77.7564 9.66303C77.6576 5.12707 81.8143 0.639297 89.0182 0.67624C91.0707 0.674634 96.5396 1.33961 98.0202 3.18515C98.2389 3.52085 98.3474 3.91598 98.3312 4.31593V5.93982C98.3312 6.65298 98.0688 7.00956 97.5423 7.00956C96.2933 6.87142 94.0773 5.21541 89.5787 5.28287C88.4626 5.22505 83.1168 5.42904 83.3565 9.2936C83.2869 12.339 87.6672 13.481 88.1677 13.6127C94.074 15.3747 96.0487 15.6671 98.3928 18.3639C101.169 21.9377 99.6725 26.1219 99.0975 27.2688C96.0066 33.2905 88.0138 32.8006 87.8778 32.7974ZM94.3899 49.6402C83.0455 57.9475 66.5772 62.3695 52.5162 62.3695C33.5435 62.4935 15.2103 55.5763 1.12039 42.9776C0.0625718 42.0315 0.995656 40.7353 2.28189 41.4565C17.9118 50.3215 35.6081 54.9794 53.6145 54.968C67.0611 54.8965 80.3611 52.1918 92.7505 47.0092C94.6588 46.2061 96.2771 48.262 94.3899 49.6402ZM99.1185 44.2931C97.6671 42.4427 89.5155 43.4289 85.8658 43.861C84.7659 43.9847 84.5796 43.0386 85.5758 42.3399C92.0669 37.8152 102.728 39.1114 103.952 40.6325C105.175 42.1536 103.62 52.745 97.5439 57.8046C96.6108 58.5868 95.7183 58.174 96.133 57.146C97.5002 53.7328 100.57 46.1451 99.1185 44.2931Z" fill="#737373"/>
</svg>
