<svg width="14" height="11" viewBox="0 0 14 11" fill="none" xmlns="http://www.w3.org/2000/svg">
<path fill-rule="evenodd" clip-rule="evenodd" d="M4.00063 9.50089C4.00063 9.36829 4.05331 9.24111 4.14708 9.14734C4.24085 9.05357 4.36802 9.00089 4.50063 9.00089H13.5006C13.6332 9.00089 13.7604 9.05357 13.8542 9.14734C13.948 9.24111 14.0006 9.36829 14.0006 9.50089C14.0006 9.6335 13.948 9.76068 13.8542 9.85445C13.7604 9.94822 13.6332 10.0009 13.5006 10.0009H4.50063C4.36802 10.0009 4.24085 9.94822 4.14708 9.85445C4.05331 9.76068 4.00063 9.6335 4.00063 9.50089ZM4.00063 5.50089C4.00063 5.36829 4.05331 5.24111 4.14708 5.14734C4.24085 5.05357 4.36802 5.00089 4.50063 5.00089H13.5006C13.6332 5.00089 13.7604 5.05357 13.8542 5.14734C13.948 5.24111 14.0006 5.36829 14.0006 5.50089C14.0006 5.6335 13.948 5.76068 13.8542 5.85445C13.7604 5.94822 13.6332 6.00089 13.5006 6.00089H4.50063C4.36802 6.00089 4.24085 5.94822 4.14708 5.85445C4.05331 5.76068 4.00063 5.6335 4.00063 5.50089ZM4.00063 1.50089C4.00063 1.36829 4.05331 1.24111 4.14708 1.14734C4.24085 1.05357 4.36802 1.00089 4.50063 1.00089H13.5006C13.6332 1.00089 13.7604 1.05357 13.8542 1.14734C13.948 1.24111 14.0006 1.36829 14.0006 1.50089C14.0006 1.6335 13.948 1.76068 13.8542 1.85445C13.7604 1.94822 13.6332 2.00089 13.5006 2.00089H4.50063C4.36802 2.00089 4.24085 1.94822 4.14708 1.85445C4.05331 1.76068 4.00063 1.6335 4.00063 1.50089ZM2.85463 0.146894C2.90119 0.193339 2.93814 0.248515 2.96334 0.30926C2.98855 0.370005 3.00153 0.435127 3.00153 0.500894C3.00153 0.566661 2.98855 0.631782 2.96334 0.692528C2.93814 0.753273 2.90119 0.808448 2.85463 0.854894L1.35463 2.35489C1.30819 2.40146 1.25301 2.4384 1.19227 2.46361C1.13152 2.48881 1.0664 2.50179 1.00063 2.50179C0.934864 2.50179 0.869743 2.48881 0.808998 2.46361C0.748253 2.4384 0.693077 2.40146 0.646632 2.35489L0.146632 1.85489C0.100144 1.80841 0.0632674 1.75322 0.0381083 1.69248C0.0129492 1.63174 6.92724e-10 1.56664 0 1.50089C-6.92724e-10 1.43515 0.0129492 1.37005 0.0381083 1.30931C0.0632674 1.24857 0.100144 1.19338 0.146632 1.14689C0.19312 1.10041 0.248309 1.06353 0.309048 1.03837C0.369788 1.01321 0.434888 1.00026 0.500632 1.00026C0.566375 1.00026 0.631476 1.01321 0.692215 1.03837C0.752954 1.06353 0.808144 1.10041 0.854632 1.14689L1.00063 1.29389L2.14663 0.146894C2.19308 0.100331 2.24825 0.0633878 2.309 0.0381813C2.36974 0.0129749 2.43486 0 2.50063 0C2.5664 0 2.63152 0.0129749 2.69227 0.0381813C2.75301 0.0633878 2.80819 0.100331 2.85463 0.146894ZM2.85463 4.14689C2.90119 4.19334 2.93814 4.24852 2.96334 4.30926C2.98855 4.37001 3.00153 4.43513 3.00153 4.50089C3.00153 4.56666 2.98855 4.63178 2.96334 4.69253C2.93814 4.75327 2.90119 4.80845 2.85463 4.85489L1.35463 6.35489C1.30819 6.40146 1.25301 6.4384 1.19227 6.46361C1.13152 6.48881 1.0664 6.50179 1.00063 6.50179C0.934864 6.50179 0.869743 6.48881 0.808998 6.46361C0.748253 6.4384 0.693077 6.40146 0.646632 6.35489L0.146632 5.85489C0.052745 5.76101 0 5.63367 0 5.50089C0 5.36812 0.052745 5.24078 0.146632 5.14689C0.240518 5.05301 0.367856 5.00026 0.500632 5.00026C0.633407 5.00026 0.760745 5.05301 0.854632 5.14689L1.00063 5.29389L2.14663 4.14689C2.19308 4.10033 2.24825 4.06339 2.309 4.03818C2.36974 4.01297 2.43486 4 2.50063 4C2.5664 4 2.63152 4.01297 2.69227 4.03818C2.75301 4.06339 2.80819 4.10033 2.85463 4.14689ZM2.85463 8.14689C2.90119 8.19334 2.93814 8.24852 2.96334 8.30926C2.98855 8.37001 3.00153 8.43513 3.00153 8.50089C3.00153 8.56666 2.98855 8.63178 2.96334 8.69253C2.93814 8.75327 2.90119 8.80845 2.85463 8.85489L1.35463 10.3549C1.30819 10.4015 1.25301 10.4384 1.19227 10.4636C1.13152 10.4888 1.0664 10.5018 1.00063 10.5018C0.934864 10.5018 0.869743 10.4888 0.808998 10.4636C0.748253 10.4384 0.693077 10.4015 0.646632 10.3549L0.146632 9.85489C0.052745 9.76101 0 9.63367 0 9.50089C0 9.36812 0.052745 9.24078 0.146632 9.14689C0.240518 9.05301 0.367856 9.00026 0.500632 9.00026C0.633407 9.00026 0.760745 9.05301 0.854632 9.14689L1.00063 9.29389L2.14663 8.14689C2.19308 8.10033 2.24825 8.06339 2.309 8.03818C2.36974 8.01297 2.43486 8 2.50063 8C2.5664 8 2.63152 8.01297 2.69227 8.03818C2.75301 8.06339 2.80819 8.10033 2.85463 8.14689Z" fill="#737373"/>
</svg>
