<svg width="20" height="20" viewBox="0 0 20 20" fill="none" xmlns="http://www.w3.org/2000/svg">
<path d="M19.1308 7.41964C19.0732 7.24983 18.967 7.10061 18.8256 6.99043C18.6841 6.88024 18.5134 6.81389 18.3347 6.79959L13.1055 6.38408L10.8427 1.37506C10.7706 1.21373 10.6534 1.07671 10.5052 0.980522C10.357 0.884337 10.1841 0.833105 10.0074 0.833008C9.83069 0.832911 9.65774 0.883954 9.50941 0.979976C9.36109 1.076 9.24372 1.2129 9.17148 1.37415L6.90867 6.38408L1.67951 6.79959C1.50382 6.8135 1.33586 6.87774 1.19572 6.98462C1.05559 7.0915 0.949205 7.23648 0.88931 7.40224C0.829415 7.56799 0.818541 7.74749 0.857988 7.91926C0.897436 8.09103 0.985535 8.2478 1.11175 8.37081L4.97605 12.1379L3.60937 18.0559C3.56788 18.235 3.58118 18.4225 3.64755 18.594C3.71392 18.7655 3.8303 18.913 3.98159 19.0175C4.13288 19.1221 4.31208 19.1787 4.49596 19.1801C4.67983 19.1815 4.85988 19.1276 5.01274 19.0254L10.0071 15.6958L15.0014 19.0254C15.1577 19.1291 15.3419 19.1825 15.5294 19.1784C15.7169 19.1743 15.8986 19.1129 16.0502 19.0024C16.2017 18.8919 16.3158 18.7377 16.3771 18.5604C16.4383 18.3832 16.4438 18.1914 16.3929 18.0109L14.7152 12.1406L18.8758 8.39649C19.1482 8.15067 19.2482 7.76727 19.1308 7.41964Z" fill="#F3CD03"/>
</svg>
